<svg width="20" height="19" viewBox="0 0 20 19" fill="none" xmlns="http://www.w3.org/2000/svg">
<path d="M10 0.220001C11.0609 0.220001 12.0783 0.641428 12.8284 1.39157C13.5786 2.14172 14 3.15914 14 4.22C14 4.95 13.81 5.63 13.46 6.22H16C16.95 6.22 17.75 6.89 17.95 7.78C19.96 15.79 20 16 20 16.22C20 16.7504 19.7893 17.2591 19.4142 17.6342C19.0391 18.0093 18.5304 18.22 18 18.22H2C1.46957 18.22 0.960859 18.0093 0.585786 17.6342C0.210714 17.2591 0 16.7504 0 16.22C0 16 0.0400002 15.79 2.05 7.78C2.25 6.89 3.05 6.22 4 6.22H6.54C6.18253 5.6144 5.99591 4.92322 6 4.22C6 3.15914 6.42143 2.14172 7.17157 1.39157C7.92172 0.641428 8.93913 0.220001 10 0.220001ZM10 2.22C9.46957 2.22 8.96086 2.43071 8.58579 2.80579C8.21071 3.18086 8 3.68957 8 4.22C8 4.75043 8.21071 5.25914 8.58579 5.63421C8.96086 6.00929 9.46957 6.22 10 6.22C10.5304 6.22 11.0391 6.00929 11.4142 5.63421C11.7893 5.25914 12 4.75043 12 4.22C12 3.68957 11.7893 3.18086 11.4142 2.80579C11.0391 2.43071 10.5304 2.22 10 2.22Z" fill="black"/>
</svg>
